<svg xmlns="http://www.w3.org/2000/svg" viewBox="0 0 64 64" width="64" height="64">
  <g fill="#e8a0b0">
    <path d="M32 8c-8 0-14 4-18 10-2 3-3 7-2 11 1 3 3 5 6 7 2 1 4 2 7 2h2c3 0 5-1 7-3 1-1 2-3 2-5 0-3-2-5-4-6-1-1-3-1-5 0-1 1-2 2-1 4 0 1 1 2 2 2"/>
    <path d="M20 18c-1 2-1 5 0 7 2 4 6 7 11 7 3 0 6-1 8-3"/>
    <ellipse cx="22" cy="18" rx="2" ry="2" fill="#333"/>
    <path d="M38 14c4 0 8 2 10 5 2 4 2 8 0 12-1 2-3 4-5 5" fill="none" stroke="#e8a0b0" stroke-width="2"/>
    <path d="M14 36c2 2 5 4 8 5 4 1 8 1 12-1 3-2 6-4 8-7" fill="none" stroke="#e8a0b0" stroke-width="1.5"/>
  </g>
</svg>
